<svg width="101" height="91" viewBox="0 0 101 91" fill="none" xmlns="http://www.w3.org/2000/svg">
<path d="M3 3H31.5C36.5392 3 41.3719 5.00178 44.9351 8.56498C48.4983 12.1282 50.5001 16.9609 50.5001 22V88.5001C50.5001 84.7208 48.9987 81.0962 46.3263 78.4238C43.6539 75.7514 40.0294 74.2501 36.2501 74.2501H3V3Z" stroke="#0177CD" stroke-width="5" stroke-linecap="round" stroke-linejoin="round"/>
<path d="M98.0001 3H69.5C64.4609 3 59.6282 5.00178 56.065 8.56498C52.5018 12.1282 50.5 16.9609 50.5 22V88.5001C50.5 84.7208 52.0013 81.0962 54.6737 78.4238C57.3461 75.7514 60.9707 74.2501 64.75 74.2501H98.0001V3Z" stroke="#0177CD" stroke-width="5" stroke-linecap="round" stroke-linejoin="round"/>
</svg>
